<?xml version="1.0" standalone="no"?>
<!DOCTYPE svg PUBLIC "-//W3C//DTD SVG 20010904//EN"
 "http://www.w3.org/TR/2001/REC-SVG-20010904/DTD/svg10.dtd">
<svg version="1.0" xmlns="http://www.w3.org/2000/svg"
 width="249.000000pt" height="249.000000pt" viewBox="0 0 249.000000 249.000000"
 preserveAspectRatio="xMidYMid meet">
<metadata>
Created by potrace 1.11, written by Peter Selinger 2001-2013
</metadata>
<g transform="translate(0.000000,249.000000) scale(0.100000,-0.100000)"
fill="#000000" stroke="none">
<path d="M948 2285 c-195 -37 -389 -147 -564 -320 -219 -217 -324 -499 -324
-871 0 -149 13 -216 65 -329 90 -197 213 -322 420 -428 167 -86 243 -102 480
-102 300 0 409 30 641 177 73 46 237 214 300 307 74 110 63 102 130 90 129
-24 270 15 315 88 17 26 20 40 12 52 -16 25 -41 25 -65 -2 -43 -46 -86 -60
-180 -60 -49 0 -91 3 -95 6 -3 4 2 35 13 69 30 100 26 355 -8 509 -48 212
-161 433 -285 555 -76 74 -230 165 -353 209 -156 56 -363 76 -502 50z m269
-76 c98 -13 230 -52 308 -91 184 -92 285 -193 380 -378 68 -131 88 -193 115
-351 25 -146 26 -308 3 -406 -20 -86 -21 -87 -133 -43 -41 17 -80 30 -87 30
-16 0 -36 -37 -27 -51 8 -14 124 -69 145 -69 9 0 19 -3 22 -6 15 -15 -172
-247 -250 -311 -111 -90 -243 -160 -373 -195 -75 -20 -109 -22 -290 -23 -198
0 -208 1 -290 28 -154 51 -297 136 -396 235 -68 68 -139 190 -179 307 -25 71
-28 93 -27 205 2 360 105 631 315 833 60 58 184 149 257 189 174 95 320 123
507 97z"/>
<path d="M865 1775 c-5 -2 -35 -10 -65 -19 -99 -27 -217 -148 -294 -299 -49
-96 -46 -111 44 -199 93 -92 125 -90 166 7 21 52 72 105 100 105 27 0 52 -23
59 -53 2 -12 6 -89 8 -172 5 -169 18 -225 71 -302 18 -26 55 -61 81 -78 43
-27 57 -30 124 -30 68 1 82 4 131 34 115 71 199 186 260 359 40 112 40 166 -2
234 -57 94 -78 117 -120 130 -38 11 -42 10 -59 -11 -11 -13 -19 -32 -19 -43 0
-32 -48 -213 -67 -253 -21 -45 -32 -50 -58 -31 -18 13 -20 31 -25 218 -6 227
-15 263 -81 325 -61 56 -121 83 -186 82 -32 0 -62 -2 -68 -4z"/>
<path d="M1445 836 c-99 -44 -118 -166 -38 -237 33 -28 39 -30 87 -24 67 9
129 40 149 75 24 40 22 111 -4 144 -42 54 -126 72 -194 42z"/>
</g>
</svg>
