<?xml version="1.0" standalone="no"?>
<!DOCTYPE svg PUBLIC "-//W3C//DTD SVG 20010904//EN"
 "http://www.w3.org/TR/2001/REC-SVG-20010904/DTD/svg10.dtd">
<svg version="1.0" xmlns="http://www.w3.org/2000/svg"
 width="360.000000pt" height="360.000000pt" viewBox="0 0 360.000000 360.000000"
 preserveAspectRatio="xMidYMid meet">
<metadata>
Created by potrace 1.11, written by Peter Selinger 2001-2013
</metadata>
<g transform="translate(0.000000,360.000000) scale(0.100000,-0.100000)"
fill="#000000" stroke="none">
<path d="M2674 3472 c-34 -22 -54 -65 -54 -121 0 -40 -23 -151 -39 -193 l-10
-26 -108 38 c-204 72 -392 102 -628 102 -303 -1 -571 -64 -833 -196 -101 -51
-267 -164 -346 -237 l-69 -63 -23 29 c-13 17 -51 83 -84 147 -64 123 -99 162
-157 174 -40 8 -78 -17 -105 -70 -30 -58 -25 -93 27 -197 l47 -92 -31 6 c-17
4 -66 22 -108 42 -85 39 -98 42 -107 19 -13 -33 -5 -133 15 -192 18 -53 27
-66 62 -87 59 -34 149 -56 204 -48 l45 6 -25 -40 c-33 -52 -100 -186 -122
-245 -16 -44 -19 -46 -49 -41 -67 11 -85 -54 -42 -146 21 -45 22 -57 13 -99
-6 -26 -10 -130 -11 -232 0 -206 16 -310 75 -477 266 -754 1094 -1207 1944
-1063 698 119 1233 607 1372 1253 25 117 25 457 0 574 -27 127 -63 228 -126
358 -78 159 -163 276 -297 411 -93 95 -108 113 -94 122 29 18 53 116 46 184
-13 107 -44 140 -95 99 -67 -55 -144 -111 -151 -111 -4 0 3 26 16 58 32 80 51
229 36 280 -17 55 -49 82 -108 88 -38 4 -56 1 -80 -14z m109 -31 c57 -22 59
-146 5 -304 -16 -49 -27 -95 -24 -103 14 -37 88 -6 185 78 52 45 58 41 67 -49
7 -71 -12 -133 -47 -150 -13 -6 -71 -24 -129 -38 -57 -15 -112 -32 -122 -39
-21 -12 -98 -131 -98 -150 0 -40 61 -47 142 -16 28 11 54 18 56 15 11 -11 -13
-69 -42 -99 -36 -39 -109 -57 -152 -37 -14 6 -31 11 -39 11 -7 0 -50 -47 -95
-105 -46 -58 -87 -105 -91 -105 -5 0 -9 17 -9 38 0 21 -6 47 -14 57 -14 19
-17 18 -98 -23 -65 -33 -168 -69 -168 -58 0 1 44 46 98 101 119 121 217 266
313 460 85 174 129 305 136 404 5 60 11 80 29 98 25 24 57 29 97 14z m-2439
-366 c36 -17 43 -27 108 -154 151 -294 476 -619 697 -698 28 -10 51 -20 51
-23 0 -3 -15 -15 -34 -28 -18 -12 -43 -33 -56 -46 -22 -24 -22 -24 -64 -7 -23
10 -104 55 -181 100 -76 44 -145 81 -152 81 -8 0 -36 -11 -63 -25 -32 -16 -66
-25 -98 -25 -41 0 -52 5 -79 33 -34 36 -63 77 -63 89 0 5 20 8 44 8 48 0 104
16 125 36 13 12 12 17 -10 40 -51 54 -142 116 -163 109 -85 -24 -123 -25 -188
-5 -82 25 -102 42 -122 104 -20 63 -22 154 -3 137 31 -25 162 -71 203 -71 52
0 61 12 36 48 -34 49 -95 186 -95 214 0 28 46 98 64 98 6 0 25 -7 43 -15z
m2685 -461 c78 -69 96 -191 52 -334 -21 -68 -30 -81 -99 -151 -60 -59 -90 -81
-135 -98 -74 -27 -175 -42 -239 -34 l-50 6 7 -43 c4 -24 20 -88 36 -143 16
-56 28 -102 26 -103 -1 -1 -41 -7 -88 -12 -150 -19 -297 -90 -354 -171 -26
-39 -75 -174 -75 -210 0 -17 -8 -18 -93 -13 -101 5 -182 -11 -244 -49 -31 -20
-31 -20 -38 0 -18 59 -242 173 -403 206 -93 19 -148 10 -240 -40 -34 -19 -65
-35 -67 -35 -3 0 -5 54 -5 120 0 66 -4 120 -8 120 -5 0 -35 -9 -67 -20 -66
-23 -147 -25 -275 -9 -107 13 -194 57 -282 142 -102 98 -238 316 -238 381 0
26 2 28 29 23 16 -3 73 -26 127 -50 127 -57 161 -64 324 -72 167 -8 237 -19
306 -50 40 -18 52 -28 48 -40 -7 -17 14 -48 27 -39 5 3 9 14 9 26 0 46 127
191 226 257 84 57 168 86 355 126 68 14 145 32 172 40 80 24 167 76 211 127
22 26 44 48 48 48 3 0 9 -18 13 -39 8 -47 -14 -102 -51 -126 -38 -24 -20 -35
60 -35 84 0 159 20 233 61 29 16 55 29 58 29 3 0 5 -17 5 -38 0 -42 -21 -68
-74 -93 -16 -8 -31 -19 -33 -25 -2 -5 31 -32 73 -59 62 -39 88 -50 131 -53 30
-3 53 -8 51 -12 -8 -19 -128 -120 -165 -139 -79 -40 -185 -21 -285 50 -55 39
-54 9 2 -95 l52 -96 -31 0 c-17 0 -55 9 -84 20 -58 22 -125 84 -185 173 -33
47 -46 55 -57 37 -9 -14 61 -116 120 -176 58 -59 138 -94 213 -94 65 0 75 12
55 64 -9 22 -22 50 -30 61 -22 32 -15 35 33 14 109 -49 225 -14 343 104 45 44
70 63 83 59 20 -5 24 -17 8 -27 -6 -4 -7 -12 -3 -18 4 -7 6 -20 5 -29 -4 -22
16 -23 78 -4 51 15 69 46 27 46 -20 0 -24 4 -20 21 4 15 0 22 -16 26 -20 5
-30 23 -12 23 19 0 169 124 215 178 52 60 122 194 111 212 -13 21 -26 8 -56
-56 -17 -36 -53 -92 -81 -125 -81 -97 -249 -212 -282 -192 -6 4 -39 10 -73 14
-46 5 -75 15 -110 38 -55 35 -55 36 11 16 69 -21 152 -19 204 5 81 37 185 144
308 318 77 107 91 112 153 56z m-342 -1038 c83 -189 118 -337 111 -478 -4 -84
-7 -100 -42 -166 -64 -119 -231 -262 -404 -344 -281 -133 -691 -198 -887 -140
-67 20 -158 75 -209 127 -122 124 -212 412 -228 729 -3 55 1 59 97 109 77 40
163 43 275 8 145 -45 320 -145 320 -182 0 -5 -25 -39 -55 -74 -124 -146 -173
-319 -129 -450 25 -71 132 -177 198 -195 143 -39 615 94 692 195 51 67 42 198
-21 330 -45 92 -153 205 -222 231 -26 9 -49 18 -51 19 -7 5 24 118 47 170 41
89 116 147 246 188 63 20 96 25 164 23 l54 -1 44 -99z m-592 -317 c33 -6 75
-19 95 -29 49 -25 155 -147 185 -213 51 -112 57 -236 14 -284 -78 -85 -499
-204 -634 -179 -53 10 -168 124 -184 182 -53 190 116 478 306 523 54 13 149
13 218 0z"/>
<path d="M326 2031 c-15 -23 86 -74 192 -96 37 -8 112 -15 167 -15 134 0 212
-22 187 -52 -8 -11 -7 -21 8 -43 22 -33 18 -64 -12 -108 -27 -38 -17 -61 23
-53 18 3 40 6 50 6 23 0 25 18 4 34 -13 10 -13 14 0 40 9 16 13 31 10 34 -2 3
3 10 12 17 15 11 15 15 -5 46 -33 53 -83 96 -127 108 -22 6 -84 11 -138 11
-113 0 -230 22 -303 56 -57 27 -61 28 -68 15z"/>
<path d="M2358 1364 c-35 -18 -48 -43 -48 -88 0 -47 16 -79 50 -99 37 -22 68
-21 107 3 59 36 53 142 -11 181 -37 23 -61 23 -98 3z"/>
<path d="M1455 1246 c-42 -18 -65 -47 -72 -89 -12 -79 23 -127 95 -127 36 0
49 5 73 31 57 61 44 156 -25 184 -41 18 -34 17 -71 1z"/>
<path d="M1959 1115 c-44 -14 -109 -71 -109 -96 0 -15 21 -53 34 -61 6 -4 30
-8 52 -8 l41 0 -12 -77 c-18 -111 -27 -128 -74 -147 -49 -19 -112 -21 -129 -4
-9 9 -15 9 -24 -1 -11 -10 -8 -16 11 -32 41 -34 144 -20 200 26 29 25 41 60
57 164 l6 44 50 -79 c58 -91 82 -113 122 -114 67 0 187 93 158 122 -8 8 -23 0
-56 -30 -86 -79 -114 -73 -194 48 -58 88 -61 96 -45 108 45 32 53 43 53 75 0
62 -59 88 -141 62z"/>
</g>
</svg>
